<svg xmlns="http://www.w3.org/2000/svg">
	<symbol id="phone" viewBox="0 0 34 38">
		<path d="M29 26.5a7.7 7.7 0 0 1-.2 1.5l-.3 1.1a2.6 2.6 0 0 1-.6 1 8.5 8.5 0 0 1-3 1.9 6 6 0 0 1-1.2.3 5.5 5.5 0 0 1-1.8-.1c-.4 0-.7-.2-1-.3a9.6 9.6 0 0 1-1.2-.5l-.5-.2-1-.4-1.3-.7c-.4-.3-.7-.3-1-.6l-1-.8-.8-.6-1.1-1a47 47 0 0 1-4.6-5.4 21 21 0 0 1-1-1.7A17.5 17.5 0 0 1 6 17l-1-3.1a11.9 11.9 0 0 1-.4-1.9A8.1 8.1 0 0 1 4.8 9a10 10 0 0 1 1-2.5 9 9 0 0 1 .6-1 2.6 2.6 0 0 1 1-.9 10.5 10.5 0 0 1 1.3-.3 6.4 6.4 0 0 1 .9-.1.8.8 0 0 1 .8.4l.5 1 .7 1.7c.2.6.6 1.2 1 1.8l.4.8.3.5a1.2 1.2 0 0 1-.1 1.3 7.3 7.3 0 0 1-1 1.1l-1 .9a6.3 6.3 0 0 0-.8.9 1 1 0 0 0-.1.9 6.4 6.4 0 0 0 .4 1l.7 1.4a21.7 21.7 0 0 0 1.5 2.2 15.5 15.5 0 0 0 1.3 1.7l1.2 1.2a13 13 0 0 0 1.4 1.1l1 .8 1 .6a2.2 2.2 0 0 0 .6.3.6.6 0 0 0 .5-.1 3 3 0 0 0 .7-.7l.9-1.3a7.3 7.3 0 0 1 1-1.3 1.3 1.3 0 0 1 .3-.2.8.8 0 0 1 .8 0 7.7 7.7 0 0 1 1 .8l.5.4 1.4.9 1 .6 1 .7a2 2 0 0 1 .3.2.8.8 0 0 1 .2.6z"/>
	</symbol>
	<symbol id="logo" viewBox="0 0 470.98 163.49">
		<path d="M245.09 65.37c-7.52-.76-14.6.6-20.92 5-10 7-15.27 17.15-19.08 28.49-1.32 4-4.43 7.56-7.49 10.54-1.32 1.28-4.58.56-6.95.75.11-2.14-.29-4.46.42-6.38 3-8.12 6.77-16 9.36-24.22 3.19-10.13-3.06-16.46-13.45-14.24-2.49.53-4.9 1.41-7.95 2.3 1.88-5.56 3.72-10.35 5.08-15.28 1.08-3.93.7-8-3.53-9.88C177.37 41 176.86 39 177 35.8c.3-8.64-3.19-15.6-10.59-20.22A47.63 47.63 0 0 0 161.1 13a4.82 4.82 0 0 1-1.29-.37 4.38 4.38 0 0 1-1.18-.35c-.13 0-.26 0-.38-.06a4.83 4.83 0 0 1-1-.26 5.23 5.23 0 0 1-1.78-.3h-.3a5.55 5.55 0 0 1-.93-.08h-.07a5.87 5.87 0 0 1-1.06-.1h-9.06a5.85 5.85 0 0 1-1.05.1h-.13a5.34 5.34 0 0 1-1.37.18h-.38a5.53 5.53 0 0 1-1.45.19h-.13a5.19 5.19 0 0 1-1.87.34h-.28a4.52 4.52 0 0 1-.75.14 5 5 0 0 1-1.71.35A5.3 5.3 0 0 1 133 13a5.22 5.22 0 0 1-1.78.33c-9.28 2.77-17.9 6.81-24.6 14.51a49.21 49.21 0 0 0-6.2 8.38c-1.72 3.11-4 4.24-7.3 3.81-9.37-1.2-18.72-2.72-28.12-3.49-11.83-1-23.69-1.95-35.44 1.42C20 40.71 13 46.15 9.11 55.24a4.89 4.89 0 0 1-.2.48 5 5 0 0 1-.41 1.05 4.39 4.39 0 0 1-.21.79c0 .15-.06.3-.1.45s0 .23-.07.34 0 .28-.07.42a4.88 4.88 0 0 1-.13.84 2.56 2.56 0 0 1 0 .27A6.29 6.29 0 0 1 7.76 61a.24.24 0 0 1 0 .08 5.54 5.54 0 0 1-.13 1.29 6.09 6.09 0 0 1-.09 1.35v.27a5.43 5.43 0 0 1-.05 1.21v.1a5.26 5.26 0 0 1 .01.7 3.71 3.71 0 0 1 0 .48 5.3 5.3 0 0 1 0 .69 5.67 5.67 0 0 1 .16 1.88 5.47 5.47 0 0 1 .19 1.66 5.55 5.55 0 0 1 .21 1c0 .14.07.29.09.44 2.74 7.21 6.06 14 12.51 18.81 6 4.46 8.41 4.75 14.12 1.25a6.66 6.66 0 0 0-.78-1.53C24.54 79.91 25.17 66.8 35.7 57a45.27 45.27 0 0 1 27.47-11.9c9.16-.8 18.45-.21 27.68-.15 3.36 0 4.74 1.85 4.3 5.21-1.43 10.78 1.42 20.68 5.76 30.46 7.52 16.93 9.35 34-.67 50.76-10.32 17.21-35.59 22.71-51.71 11.46-13.4-9.35-12.7-31.24 1.25-38.67C54 114 60 115.88 68.61 109.05a27.62 27.62 0 0 0 8.18-12c2-5.59-1.61-9.94-7.64-10.06-14.93-.31-25.7 7.11-33.25 19.35a40.52 40.52 0 0 0-5.14 13.42c-3.11 16.38 5.48 29.84 21.47 34.47 1.74.5 3.49 1 5.25 1.4a5.52 5.52 0 0 1 1.18.15H59a5.21 5.21 0 0 1 1.69.27h.19a5.69 5.69 0 0 1 1.28.15h.47a5.26 5.26 0 0 1 1.15.13 5.6 5.6 0 0 1 1 .12H78.3a5.66 5.66 0 0 1 1.2-.13h.84a5.28 5.28 0 0 1 1.16-.13h.55a5.57 5.57 0 0 1 1.33-.16h.66a5.33 5.33 0 0 1 1.16-.15 5 5 0 0 1 1.65-.26 4.32 4.32 0 0 1 .91-.2 5.12 5.12 0 0 1 1.82-.42l1.94-.63c21.69-7.18 35.28-21.57 38.77-44.45 1.93-12.6-1.14-24.5-7-35.69-4.47-8.4-7.29-17.24-6.47-26.82.15-1.76 1.05-4.28 2.37-5 3-1.52 6.44-2.12 10.73-3.39-1.45 2.62-2.4 4.12-3.15 5.72-4 8.7.37 17.42 9.91 18.69 9.07 1.2 18 .23 26.07-4.64 1.14-.69 2.37-1.24 4.41-2.29-3.65 9.1-7 17.09-10.06 25.16-3.82 9.94-7.84 19.82-11.06 30-2.08 6.53 1.39 10.91 8.24 11a25.86 25.86 0 0 0 9.49-2.37c2.07-.86 3-3.21.44-4.61-3.62-2-3.26-4.45-2-7.54 3.39-8.16 6.42-16.47 10.16-24.46 1.13-2.42 3.9-4.33 6.34-5.77 1.17-.68 3.72-.22 4.87.7.76.61.58 3.12.06 4.47-2.72 7-5.8 13.83-8.5 20.82a30 30 0 0 0-2.13 8.65c-.45 6.36 3 10 9.48 10.26 7.1.28 12.94-2.76 17.84-7.62 1.25-1.24 1.87-3.11 3.35-5.68 6.1 11.23 13.88 12.83 23.24 10.37 15.49-4.05 30.16-23.08 30.08-39.18 0-8.7-4.47-14.58-11.91-15.33zM165.75 42c-4 9-10.38 13.78-19.7 14.34-3.59.22-8.12-.92-10.79-3.15-3.39-2.85-1.84-7.43 0-11.13 2.5-5.07 6.08-9.12 11.5-11.24 2-.79 4.47-1.15 3.09-4.35-1.47-3.42-3.64-1.73-5.73-.86l-19.36 8a33.69 33.69 0 0 1-4.19.92 30.25 30.25 0 0 1 20.29-16.73c7.55-2 14.89-1.23 21.27 3.78s6.94 13.05 3.62 20.42zm76.7 35.57a68.17 68.17 0 0 1-13.9 32.7 16.09 16.09 0 0 1-3.22 3.11c-3.38 2.41-5.73 1.37-6.16-2.68a13.42 13.42 0 0 1 .12-4c2.36-11.59 6.8-22.28 14.39-31.45 1.7-2 4.2-3.44 6.33-5.14l1.71.77c.28 2.25 1.03 4.55.73 6.69zM345.2 67.28c4.35-.87 8-2.12 11.75-2.25 6.94-.24 11.18 4.33 10.06 11.15-.77 4.69-2.7 9.23-4.38 13.74-1.92 5.14-4.25 10.14-6.16 15.29-.52 1.4-.78 4-.06 4.51a6.9 6.9 0 0 0 5.08.79c5.67-1.33 8.11-6.26 10.31-10.83a177.83 177.83 0 0 0 8.2-20.39c.59-1.75-.78-4.26-1.51-6.33-.46-1.33-2.26-2.85-1.93-3.66.66-1.64 2.24-3.82 3.68-4a29.45 29.45 0 0 1 10.38.34c5.05 1.15 7.33 5.25 5.55 11-2.67 8.57-6.27 16.84-9.27 25.31-1 2.72-4.49 6.37-.61 8.21 2.19 1 6.49-1.13 9.19-2.86 1.8-1.15 2.87-4 3.58-6.23 4.11-13.24 10.15-25.11 22.82-32.15 6.37-3.54 13-5.15 20.57-2.73 3.86 1.23 8.5 0 12.79-.08 1.62 0 3.24.18 5.61.33-.7 2.27-1.1 4-1.76 5.61-4.22 10.51-8.6 21-12.69 31.53-.76 2-.45 4.37-.64 6.58 2.52-.25 5.31.1 7.47-.91 2.42-1.14 4.27-3.5 6.37-5.33 2.82 3.92.41 8.86-7 14.14-10 7.15-18.62 6.48-24.39-1.46-5.65 2.15-11 5.11-16.68 6.11-6.58 1.15-10.59-3.59-13.06-9.33-17.63 12.12-24.2 12.64-31.29 2.09a19.3 19.3 0 0 1-3.89 2.48c-5.09 1.76-10.18 4.21-15.42 4.67-5.81.51-9.18-3.73-8.84-9.63a29 29 0 0 1 2-8.67c2.75-7.15 5.91-14.15 8.68-21.29.52-1.33.58-3.87-.19-4.44-1.19-.88-3.73-1.28-4.9-.57-2.42 1.47-5.15 3.42-6.28 5.86-3.73 8-6.79 16.29-10.14 24.46-1.17 2.85-1.73 5.31 1.72 7.2 2.86 1.55 2.09 3.93-.28 4.88-3.15 1.26-6.69 2.36-10 2.22-6.32-.25-9.59-4.54-7.67-10.59 3.28-10.3 7.33-20.35 11.21-30.45 3.35-8.7 6.89-17.34 10.41-26 1.25-3.07 1.81-5.73-2.12-7.42-.76-.33-1.6-2.41-1.24-3 .86-1.56 2.2-3.57 3.69-3.92a26 26 0 0 1 8.45-.11c6.22.64 9.28 4.65 7.82 10.8C349 57 347 61.94 345.2 67.28zm68.19 37.24c-.25 7.47 3.19 10.19 8.14 7.38 3.35-1.9 6.77-5 8.39-8.42C434 95 437.07 86 440.38 77.11c.57-1.53 1-4.34.3-4.85a7.72 7.72 0 0 0-5.48-.87 10.73 10.73 0 0 0-5.2 2.67c-9.23 8.82-13.53 20.23-16.61 30.46zM263.87 71.72c2.11-7.31 13-9.78 18.45-3.78 2.68 2.93 4.39 3 7.44.93a26 26 0 0 1 8.15-3.62c8.46-2.21 15.85 4.11 16.17 13.53.56 16.6-15.23 37.52-31.58 41.24a26.62 26.62 0 0 1-11.24-.2c-3.05-.65-4.25 0-5.14 2.71-1 3.17-2.32 6.24-3.58 9.33s-1.81 5.47 1.85 7.56c2.84 1.62 1.29 4.43-.75 4.94a38.53 38.53 0 0 1-13 1.3c-1.69-.17-4.22-3.71-4.27-5.77a30.39 30.39 0 0 1 2.2-11.57c6-15.51 12.41-30.89 18.65-46.32 2.56-6.33 2.43-6.71-3.35-10.28zm34.95 10.92c.06-4.52-.41-7.58-4.83-7.7-3.93-.11-9.53 3.64-11 7.37-3.55 8.79-7.13 17.56-10.56 26.4-.61 1.58-.52 3.42-.76 5.14 1.91.23 3.86.83 5.69.56a9.51 9.51 0 0 0 4.91-2.24c8.81-8.38 13.85-18.88 16.55-29.53z"/>
		<path d="M399.24 41a8.93 8.93 0 1 1-8.88 8.51 8.93 8.93 0 0 1 8.88-8.51z"/>
	</symbol>
	<symbol id="facebook" viewBox="0 0 195 345">
		<path d="M184 4c3.5 3.4 4 7.7 4 12.4v43c0 7.6-2.9 10.2-10.7 10.3-11.2.1-22.3.1-33.5.4-8.5.2-14.6 6-15 14.6-.7 12.3-.8 24.6-1.3 36.9-.2 4.2 2.6 3.9 5.3 4h44c6.2 0 9.7 3.5 9.7 9.8V185c0 6.9-2.4 9.4-9 9.5-14.6 0-29 .2-43.5-.1-5-.1-6.5 1.6-6.5 6.3v118.9c0 4.5.5 9 0 13.4-.5 3.1-2.3 6.1-3.5 9.1H60c-3.6-5-2.9-10.8-2.9-16.5l.1-125c0-4.8-1.7-6.4-6.4-6.2-12 .2-24 0-36 0-6.8 0-8.6-1.5-8.6-8-.2-17.6-.2-35-.1-52.6 0-5.6 3.1-8.2 9-8.2 12.3 0 24.7-.2 37 0 3.8 0 5.2-1 5.2-5.2-.2-13.3-.5-26.6.2-40 1.4-29.5 13.2-53.1 40.3-67.2 6.3-3.2 13.7-4.4 20.6-6.6 2.2-.7 4.4-1.6 6.6-2.5z"/>
	</symbol>
	<symbol id="twitter" viewBox="0 0 235 195">
		<path d="M73.5 150.8c-21-2.3-35-12.3-42.9-32.1h19c-21.7-8.1-33.6-23-35.3-45.9l19.2 5.4C14.4 60.4 10 40.2 20.7 16A133 133 0 0 0 116 64.4a55.8 55.8 0 0 1 2.2-27.3 46 46 0 0 1 73.5-17.8c2.6 2.4 4.9 3 7.9 2l23.9-8.9c-3.1 9.8-9.7 17.2-17.8 24.1 3.9-.8 7.8-1.5 11.6-2.6l11.3-3.5 1 1.1c-5.9 6-11.5 12.4-17.9 17.9a11 11 0 0 0-4.4 9.6A130.9 130.9 0 0 1 10.1 172.4a16.5 16.5 0 0 1-1.7-1 8.5 8.5 0 0 1-1-1.3c24.2 1.6 46-4.2 66-19.3z"/>
	</symbol>
	<symbol id="pinterest" viewBox="0 0 255 253">
		<path d="M247 117v22a22 22 0 0 0-.9 3.3A120.1 120.1 0 0 1 157.5 244c-6.5 1.7-13 2.7-19.5 4h-22l-25-5.2c13.3-18.2 17.3-38.8 22.8-59.8a32 32 0 0 0 22.4 13 49.4 49.4 0 0 0 26-3.6c22.6-9.7 34.2-28.1 39.4-51.3 7.6-34.2-5.9-64.7-35.4-79.9a85 85 0 0 0-63.2-5.1 69.4 69.4 0 0 0-51 81.7 48 48 0 0 0 20.5 32.5c4.5 2.9 5.4 2.4 6.7-2.6a73.8 73.8 0 0 0 2.4-9.7 9.8 9.8 0 0 0-1.2-6 50.4 50.4 0 0 1 9-65c23.5-21.5 65.2-16.6 80.5 9.5 11.5 19.6 7.6 53.7-8.1 70.3a31.7 31.7 0 0 1-17 9.8c-17.2 3.4-27.7-9.3-23-23.6 1.8-5.6 3.5-11.2 4.9-16.8 1.6-6.4 3.4-12.9 4.1-19.5.9-8.3-2.8-14.4-8.9-16.8a17 17 0 0 0-19.5 5c-9.6 11.1-9.6 24-6 37.3a17.4 17.4 0 0 1 .3 7.7c-1.8 8.8-4 17.5-6.1 26.2-5 20.4-10.9 40.6-7.7 62 0 .2-.3.5-.6 1a118.5 118.5 0 0 1-70.1-76.9C9.7 154.7 8.6 146.8 7 139v-22a22 22 0 0 0 .9-3.3A120 120 0 0 1 96.5 12c6.5-1.6 13-2.7 19.5-4h22a21.8 21.8 0 0 0 3.3.9A120.1 120.1 0 0 1 243 97.5c1.7 6.4 2.7 13 4 19.5z"/>
	</symbol>
	<symbol id="instagram" viewBox="0 0 321.9 331.8">
		<path d="M289.7 0H32.2C14.5 0 0 15 0 33.2v265.4a32.8 32.8 0 0 0 32.2 33.2h257.5c17.8 0 32.2-15 32.2-33.2V33.2A32.8 32.8 0 0 0 289.7 0zM161 99.5c35.4 0 64.4 29.9 64.4 66.4s-29 66.4-64.4 66.4-64.4-29.9-64.4-66.4 29-66.4 64.4-66.4zM40.2 298.6c-4.8 0-8-3.3-8-8.3v-141H66c-1.6 5-1.6 11.6-1.6 16.6 0 54.8 43.4 99.6 96.6 99.6s96.5-44.8 96.5-99.6c0-5 0-11.6-1.6-16.6h33.8v141c0 5-3.2 8.3-8 8.3zm249.5-224c0 5-3.2 8.3-8 8.3h-32.2c-4.8 0-8-3.3-8-8.3V41.5c0-5 3.2-8.3 8-8.3h32.2c4.8 0 8 3.3 8 8.3z"/>
	</symbol>
	<symbol id="row-down" viewBox="0 0 305 183">
		<path d="M23 6.5c2.6 3 5 6.1 7.7 9L148.3 138l3.6 4.1L280.7 7 299 23.5v1c-10.4 10.7-21 21.3-31.3 32.1L156.1 173.1l-3.4 4.1L5.5 24.7 21 6.5z"/>
	</symbol>
	<symbol id="airplane" viewBox="0 0 400 377">
		<path d="M395.6 38.5a87.5 87.5 0 0 1-9.3 33.5 57.8 57.8 0 0 1-13.5 18.7c-5.3 4.8-9.6 10.8-14.7 16-3.5 3.7-7.5 7-11.4 10.4l-41.1 35.7c-1.1 1-2.7 1.4-3.7 2.4-.7.6-1.5 1.9-1.3 2.7 1.6 7.2 3.6 14.3 5 21.5q10.4 50.5 20.5 101l4.6 23c.3 1.7 1.2 3.2 1.6 4.8a55.8 55.8 0 0 1 1.4 8.4c.1 3.4-3 4.7-5 6.5-10.7 9.7-21.4 19.4-32.6 28.6-3.7 3-8.6 4.7-13.2 6.3-3.4 1.2-6.7-1.1-9-4.7-8-12.3-13-26-19.2-39.1l-34-73.1a34.7 34.7 0 0 0-5-7c-1.1-1.3-2.4-1.2-3.8 0q-22.7 19.9-45.5 39.5c-2.7 2.3-5.6 4.2-8.2 6.4a3.5 3.5 0 0 0-1 2.6c1.1 14.3 2 28.7 3.8 43 .6 5.3-.6 10.4-.1 15.5a3 3 0 0 1-1.1 2.1c-8.9 7-16.3 16-27 20.8-2.2 1-4.1 2.5-7 2.8-5 .5-7.2-2.5-8.9-5.5-13.4-23.6-23-49-34.7-73.3-.3-.7-.2-1.6-.6-2.2a9.4 9.4 0 0 0-2.2-2.3c-.7-.5-1.8-.8-2.6-1.3-21-13.5-42.2-26.8-63-40.5-5.2-3.4-9-8.8-9.3-15.4-.1-1.5 2-3.4 3.3-4.8a66 66 0 0 1 5.4-5.2l17.3-15 3-2.6c4.8-5 7.2-3.6 12.4-1.5a98.4 98.4 0 0 0 14.3 4.8c9.8 2.3 19.7 4 29.5 6.3 3.3.8 5.4 1.2 8.1-1.8 4.2-4.7 9.3-8.4 14-12.5 12.4-10.8 24.7-21.6 37.2-32.3 1.5-1.3 1.6-2.6.5-3.8a32.8 32.8 0 0 0-6-5.8c-14.6-9.6-29.3-19-43.9-28.4L49.1 91c-1.8-1.2-3.8-2.2-5.5-3.4a62 62 0 0 1-5.2-4.3c-3.6-3.4-3.7-7.3-1-11.3C47 58.3 59.9 48 72.4 37.3l7.4-6.6c2.1-1.9 4-2 6.6-.8a97.2 97.2 0 0 0 10 4.5l134.7 47a30.8 30.8 0 0 1 4.8 2.6c1.3.7 2.4 1 3.6-.3 1.8-2 3.7-4 5.7-5.8l52-45.3c1.7-1.4 3.8-2.3 5.7-3.6a45 45 0 0 0 4.5-3.7c5.8-5.4 13-8.7 20.2-11.5 12.8-5 26-7.8 39.8-6.8 8.3.7 14.8 4.3 20.7 10.2 6.2 6 7.2 13.3 7.6 21.3z"/>
	</symbol>
	<symbol id="clock" viewBox="0 0 385 385">
		<path d="M375.8 173.7l1.5 18.9a100.4 100.4 0 0 1-2.6 31.2c-1.7 7-2.4 14.3-4.5 21.2a180.8 180.8 0 0 1-41.8 73 187.1 187.1 0 0 1-76 50 149.3 149.3 0 0 1-32.6 7.5 17.2 17.2 0 0 0-2.4.6 40.8 40.8 0 0 1-6.2 1.6c-4 .4-8.2 1-12.2.6a107.7 107.7 0 0 0-14 0c-6.7.2-13.5-1.3-20.3-2.3-26-4-50.1-12.6-72.2-27A184.5 184.5 0 0 1 12 239.8c-2.4-9-3.1-18.7-5-28a46.8 46.8 0 0 1-.4-18.8 1.6 1.6 0 0 0 0-.7c-2.1-6.3.3-12.4.6-18.5A158.9 158.9 0 0 1 22.5 114q27.8-58.6 85.3-88.7A170.3 170.3 0 0 1 170.4 7c5.5-.5 11-1.2 16.4-1.5 3 0 6 .8 9 1 5.5.2 11 0 16.6.4A172.8 172.8 0 0 1 292 35q55 35.8 76.5 98a154 154 0 0 1 7.5 34.5 61.6 61.6 0 0 1 0 6.2zm-34.3 20.5c0-8 .4-13.7-.1-19.4-.4-4.3-2-8.4-3-12.7a149.3 149.3 0 0 0-40-75.2C278 66 253.3 52.5 224.8 46c-10.8-2.5-21.6-5-32.8-4-8.7.8-17.4.4-26.2 2.1a156.7 156.7 0 0 0-60.4 25.2 142.2 142.2 0 0 0-45.7 51A141.2 141.2 0 0 0 41.6 186v.3a132.3 132.3 0 0 0 8 54.4q28.2 77.3 108.2 97.7c8.9 2.2 17.8 4.5 27.2 3.7 7.2-.5 14.5.3 21.7-.4a144.8 144.8 0 0 0 42.8-11.3q68.4-29.9 87.5-102.2c3-11.9 6.2-23.8 4.5-34z"/>
		<path d="M169 152.8V109c0-5.7-.4-11.4-.6-17.2 0-3.2.8-4.3 4-4.3s6.5.5 9.7.5l12-.3c4.8 0 9.7 0 14.5.4.7 0 1.8 1.6 2 2.5a70.6 70.6 0 0 1 .5 9v96.2a5.4 5.4 0 0 1-.1 2.2c-1.6 3.1.3 4.4 2.6 6l33.5 24c4.2 3 8.8 5.4 13 8.3a30.8 30.8 0 0 1 5.9 5 4.3 4.3 0 0 1 .4 3.8 87.2 87.2 0 0 1-5.2 8.6c-3.7 5.7-7.6 11.3-11.2 17-2.4 4-5.3 5.3-9.3 2.7-11.3-7.2-22.5-14.5-33.5-22.1-10.2-7-20-14.6-30-21.7a19.3 19.3 0 0 1-8.6-17c.2-17.7.2-35.4.2-53v-6.8z"/>
	</symbol>
	<symbol id="wheel" viewBox="0 0 396 396">
		<path d="M192.6 11.3l6.7 1.6c.6.2 1.4.4 1.9.2 4.3-2.4 9-1 13.4-1.2a24.3 24.3 0 0 1 7.2.6c14.3 4.2 29.3 5.6 43.3 11A192.5 192.5 0 0 1 330 64.8a183.4 183.4 0 0 1 50.2 84.4c2 7.2 2.9 14.7 4.3 22 .2 1 .7 2 1 3a28.5 28.5 0 0 1 1.2 5.3c.3 4.3.4 8.6.4 13a22 22 0 0 1-.9 4c-.2.8-.6 2-.3 2.6 2.4 4.9 1.7 10 .9 15-2.3 13.4-4.5 27-8.6 40.2a176.9 176.9 0 0 1-17 37.9 186.9 186.9 0 0 1-24.8 33.1c-25 26.5-55 44.6-90.5 53.5-5.9 1.5-12 2.2-17.9 3.3-1.2.2-2.3.7-3.5 1a21.9 21.9 0 0 1-4.6 1.2c-4.9.3-9.8.8-14.6.3a41.3 41.3 0 0 0-9.2 0c-5.6.5-11.6.7-16.9-.7-13.5-3.7-27.6-5-40.7-10a200.3 200.3 0 0 1-37.5-18.6q-56-36.3-77.6-99.5a157.5 157.5 0 0 1-6.8-30.8c-.3-2.2-1.8-4.3-2-6.6-.4-5-1-10-.4-15a47.3 47.3 0 0 0 0-10c-.6-5.5-.7-11.3.7-16.5 3.7-13.9 5.1-28.3 10.4-41.9a202 202 0 0 1 19.6-38.4A187.6 187.6 0 0 1 140.5 22a159 159 0 0 1 33.3-7.6c2.8-.4 5.6-1.7 8.5-2.1 3.4-.5 6.8-.4 10.2-.6zm9 247.6c4.8-.2 9.3-.5 14-2a63 63 0 0 0 40.3-35.5 52.3 52.3 0 0 0 3-38 62.4 62.4 0 0 0-67.3-45.5 11.1 11.1 0 0 0-2.6.6c-2.4 1-4.8 2-7.2 2.8-11.4 4.2-21.6 10.4-28.7 20.4s-12.6 20.8-13 33.6c-.1 6.5.1 12.7 2.4 18.9a61.8 61.8 0 0 0 59.2 44.7zm2.6 89.5c17 .8 36.5-5.2 56-11.6 4.1-1.4 7.9-4.1 11.8-6.2l1.1-.6c4.4-2.2 4.6-3.3 1-6.9L242 290.7c-.6-.5-1.2-1.1-1.7-1.8-1.9-2.1-3.3-2.1-5.7-.8a33.7 33.7 0 0 1-7 2.8c-2.5.7-5.2.6-7.7 1.2a92.2 92.2 0 0 1-37 .4l-19.1-3.3a5.5 5.5 0 0 0-5.1 2l-30.2 30.2-3 3c-.7.7-2 1.8-1.8 2.3a5.4 5.4 0 0 0 2.3 2.6c2.8 1.7 5.7 3.2 8.6 4.7a79.1 79.1 0 0 0 7.4 3.3c2 .7 4.3 1 6.3 1.7 16.8 6.2 34.1 9.4 56 9.4zM50.4 204c1 20.4 5.5 45.7 19.4 68.5l.2.4c1.2 2 2.6 2.2 4.2.6l32.5-32.6a9.4 9.4 0 0 0 2.8-8.9l-2.8-14.1a92.1 92.1 0 0 1-.7-35.7c1.3-7.2 2.3-14.3 3.5-21.4a4.1 4.1 0 0 0-1.5-4l-24.2-24.1-9.4-9.3c-2-2-3.5-1.8-4.7.3-1.9 3.4-4 6.7-5.7 10.2a38.8 38.8 0 0 0-2.5 6c-.6 2-.9 4-1.6 6a157.2 157.2 0 0 0-9.5 58.1zm184.2-96.6c4 .1 6.5-.8 8.7-3l32-32c2.1-2.2 1.9-3.5-.8-5L264 61.1a19.6 19.6 0 0 0-3.9-1.7c-3-.9-6.1-1.5-9.1-2.5a149.2 149.2 0 0 0-41.9-8.5 129 129 0 0 0-40 3.1c-14.7 3.9-29.9 6.6-42.6 16l-.2.1c-2.5 1.4-2.7 2.7-.7 4.6 10.2 10.2 20.6 20.1 30.4 30.7 3.9 4.2 7.8 5 12.8 3.9l1.7-.4c17.4-4.4 35-5.4 52.7-1.6l11.4 2.5zm115.9 91.1v-7.2a154 154 0 0 0-9.3-45.4c-1.7-4.8-2.3-10-5.5-14.3a58.2 58.2 0 0 1-4-7c-1.6-3-3-3.2-5.5-.8l-33.6 33.6a3.3 3.3 0 0 0-1 2c.1 3 .3 5.8.7 8.7 1.4 9.6 3.6 19 4 28.6.6 11-1.2 22-4.2 32.6-1.2 4.3-1 8.4 2.4 11.8l32 32c2 2 3.5 1.8 5-.7l6.1-10.5a19.5 19.5 0 0 0 1.7-3.9c1-3 1.6-6.3 2.7-9.3a145.7 145.7 0 0 0 8.5-50.2z"/>
	</symbol>
	<symbol id="rss" viewBox="0 0 241 246">
		<path d="M233 229v8h-48c-1-2.1-2.5-4.2-2.8-6.4-.7-5.3-.6-10.6-1.2-16-5-44.6-24.7-81.6-58.7-111A166.2 166.2 0 0 0 18.1 62.8c-3.4-.1-6.7-1.1-10.1-1.7V12h15c6.4.7 12.9 1.3 19.2 2.2 51.4 7.8 95.1 30.3 130.6 68.1a215.3 215.3 0 0 1 57.3 119c1.3 9.2 2 18.5 2.9 27.7z"/>
		<path d="M8 133V88c2-.7 4.1-2.1 6.2-2.1a130.7 130.7 0 0 1 61 14.3c53.3 27.6 81.5 71.5 83.9 131.7 0 1.6-1.4 3.4-2.1 5.1h-45c-.7-2-1.9-4-2-6a98.7 98.7 0 0 0-96-96.2c-2 0-4-1.2-6-1.8z"/>
		<path d="M8 199c2.7-5.6 4.5-12 8.1-16.8a32 32 0 0 1 37.9-9.4 33 33 0 0 1 20.4 33.3A33.1 33.1 0 0 1 48.7 236a20.5 20.5 0 0 0-2.7 1h-9c-5.1-2.2-10.6-3.8-15.3-6.8-8-5-11.6-13.2-13.7-22.2z"/>
	</symbol>
	<symbol id="visa" viewBox="0 0 206 75">
		<path d="M199.2 67.5c-11.7 2-13 1.4-16.1-7.8-5.7 0-11.5-.3-17.2.2-1.4 0-3.2 2.3-3.6 3.8-1 3.8-3 5-6.8 4.6-3.2-.3-6.5 0-10.6 0l7.3-17c5.5-12.7 11.2-25.5 16.6-38.4 1.4-3.4 3.3-4.6 7-4.5 11.4.2 11.5 0 13.8 11l9 43.5.6 4.6zm-22-39.7l-1.2.1-7.7 20.1h12.9zM145 21.8c-5.5-.6-10.6-1.6-15.5-1.4-2.1 0-5 2.3-5.8 4.3-.5 1.2 2 4.2 3.7 5.5 3 2.4 6.6 3.9 9.8 6 9 6 10.3 15.3 3.5 23.5-7.8 9.4-26.5 13.4-37.3 8a4.7 4.7 0 0 1-1.8-3.7 73.7 73.7 0 0 1 1.7-9l12.7 2.4a22.4 22.4 0 0 0 5 0c3.5-.2 7.4-1 7.7-4.8.1-2.2-2.6-5-4.6-6.7-2.4-2-5.4-3.4-8.1-5a15.7 15.7 0 0 1-8.4-16.6c.9-7.7 5.6-12.3 12.5-14.7a40.2 40.2 0 0 1 23.7-.3c3 .8 3.6 2.3 2.9 5l-1.7 7.5zM78.2 8.5l-11 27.8c-3.8 9.4-7.8 18.7-11.5 28.2-1 2.7-2.4 3.8-5.4 3.8-13.3-.1-13.3 0-16.7-12.9-3-11.2-6-22.4-8.4-34a53 53 0 0 1 21.8 28l1.9-4.2c3.7-10.9 7.5-21.7 11-32.6 1-3 2.5-4.3 5.7-4.1 3.9.2 7.7 0 12.6 0zM84.6 8.7H100a24 24 0 0 1 0 3.5c-2.7 17.3-5.6 34.6-8.2 51.9-.5 3.2-1.8 4.1-4.9 4-3.6-.2-7.2 0-11.5 0z"/>
		<path d="M8.3 9.2c9 0 16.6-.4 24 .3 2.5.2 6 3 6.8 5.4 2.2 7.2 3.3 14.8 4.6 22.3C36 23.3 23.4 15.7 8.3 9.2z"/>
	</symbol>
	<symbol id="masterCard" viewBox="0 0 229 143">
		<defs>
			<style>
				.cls-2{fill:#fff}
			</style>
		</defs>
		<path d="M115.6 24a65 65 0 1 1-.2 96.9A63.7 63.7 0 0 1 61 136.5a61.7 61.7 0 0 1-40-24.2 65.4 65.4 0 0 1 5.4-85.8 64.4 64.4 0 0 1 89.2-2.5zM41.8 89.6l5.4-33.4a30.9 30.9 0 0 1-4.3 0c-5-.8-8 .8-9 6.3-.7 4-2.4 7.7-3.7 11.5l-1.3-.3V56.4h-10l-5.2 32.8c5 1.5 7 .2 7.4-4.6.3-4.4 1.5-8.7 2.3-13h.9L25 91c9.4-4.3 7-14.4 12.4-20l-2.5 18.6zM209 65c-6.7-4-11.1-3.1-14.9 2.4a19.2 19.2 0 0 0-2.8 15.3c.9 4.2 3.4 7.2 8.2 7.2a61.4 61.4 0 0 0 9.2-.2c1.3-.2 3.4-1.6 3.6-2.7 2-9.9 3.5-19.8 5.1-29.6-8-3.1-7.4 2.9-8.4 7.6zM59.6 71c-4 1.5-8 2.2-11.3 4.2-3.8 2.4-4.4 6.9-2.6 10.7.8 1.9 3.8 3.7 6 3.9 3.2.2 6.5-1.5 10-.1.6.2 2.6-1.1 2.8-2a166 166 0 0 0 2.3-18.6c.2-4.6-3.7-7-9.7-7-7 .1-8 1-8.4 6.8 10.2-.4 10.2-.4 11 2.2zm112.1.2c-4.5 1-8.1 1.5-11.4 3a8 8 0 0 0-4.5 10c.6 2.2 3.1 5.2 5.1 5.5 4.4.6 9-.3 13.7-.7l1.6-10.2c.4-3 1.2-6 1.2-8.9 0-5.7-3.5-8.2-10.8-7.8-6.7.3-7.5 1-7.2 6.9 3.9.7 8.3-2.3 12.3 2.2zm-53 13l-1.5-1.3c-10 1.9-12 1.1-11.7-4.5h5a32.1 32.1 0 0 0 5 0c1.1-.2 2.7-.7 3.2-1.6 1.9-3.1.2-10.5-2.7-12.9-3.5-2.8-9.2-2.6-12.9.4C98 68.5 96 78.4 99 84.5c2.4 4.6 7.9 7 14.8 5.2 2-.6 3.3-3.7 5-5.6zm35-2c-6.2 1.6-8.5 1.2-10.3-1.5-2.2-3.1-1.8-10 .9-13.7 3.2-4.7 7.6-4.6 12.8-2.4l1.1-6.8c-9-3.3-15-2-19.6 4.2-4.8 6.5-5.9 18.2-1.3 23.4a15.6 15.6 0 0 0 8.8 4.6c6.4 1 7.5-.5 7.6-7.9zM85.1 63.5c-6.5-2.3-12.6-1.6-15 2.1-5.8 8.6 1.9 12 7.5 16.2l-.8 1.3H66.4l-.5 7c4.7-.3 8.9 0 12.7-1 2.2-.7 4.8-3.6 5.1-5.8.3-2.7-1.2-5.9-2.6-8.4-1-2-3.3-3.2-5-4.7l7.4-1.4a8.5 8.5 0 0 0 .8-.4zm9.7-3.8l-.1-1.9c-2.1 1-5.7 1.7-6 3.1A201.9 201.9 0 0 0 85 84c-.5 4.2 1.8 6 6 6 4.5.1 5.5-2.1 4.8-6.3-3.8-.2-4.2-2.4-3-5.7 1-2.7.8-7.8 2.1-8.1 4.3-1.1 3-4.1 3.4-5.3zm41.4 3.9a64.8 64.8 0 0 0-8.6-.7c-1.5.2-4 1-4.2 2-1.5 8.1-2.7 16.3-4 24.4 4.7 1 7.5 1 7.8-4.6a41.5 41.5 0 0 1 3.4-12.9c1.2-3 3.6-5.4 5.6-8.2zm41 25.6c5.2 1.6 7.5.3 8-5a46.5 46.5 0 0 1 3.4-12.8c1.2-2.9 3.4-5.3 5.1-7.9h-12.4l-4.2 25.7z" fill="#505050"/>
		<path class="cls-2" d="M41.8 89.6h-6.9L37.4 71c-5.5 5.7-3 15.7-12.3 19.9l-.9-19.3h-.8c-.8 4.3-2 8.6-2.3 13-.4 4.8-2.4 6-7.5 4.6L19 56.4h10v17.3l1.3.2c1.3-3.8 3-7.5 3.8-11.4 1-5.5 3.9-7.1 9-6.3a32.7 32.7 0 0 0 4.2 0l-5.4 33.4zM209.1 65c1-4.7.5-10.7 8.4-7.6-1.6 9.8-3.2 19.7-5 29.6-.3 1.1-2.4 2.5-3.7 2.7a61.4 61.4 0 0 1-9.2.2c-4.8 0-7.3-3-8.2-7.2a19.2 19.2 0 0 1 2.8-15.3c3.8-5.6 8.2-6.3 15-2.4zm-13 12c2.5 2.7 4 5.8 5.6 5.8 4.6 0 4.8-4.3 5.2-7.7.4-2.7-.3-6.5-3.5-5.7-2.6.7-4.4 4.4-7.3 7.6zM59.6 71c-.7-2.4-.7-2.4-10.9-2 .4-6 1.4-6.8 8.5-6.9 6 0 9.9 2.4 9.6 7a165.5 165.5 0 0 1-2.3 18.7c-.1.8-2.2 2-2.8 1.9-3.5-1.4-6.8.3-10 0-2.2-.1-5.2-2-6-3.8-1.7-3.8-1.1-8.3 2.7-10.7 3.1-2 7.1-2.7 11.2-4.1zm0 8.7L57.8 77a64.7 64.7 0 0 0-5.7 4.2 19 19 0 0 0 1.7 2.8zm112.1-8.5c-4-4.5-8.4-1.5-12.2-2.2-.4-5.9.4-6.6 7.1-7 7.3-.3 10.9 2.2 10.8 7.9 0 3-.8 6-1.2 8.9L174.6 89c-4.7.4-9.3 1.3-13.7.7-2-.3-4.5-3.3-5-5.5a8 8 0 0 1 4.4-10c3.3-1.5 7-2 11.4-3zm-2.7 5.1l-6.9 4.8c.8 1 1.7 2.8 2.6 2.8 3.6 0 4.5-2.5 4.3-7.6zm-50.3 7.8c-1.7 2-3 5-5.1 5.6-6.9 1.7-12.4-.6-14.7-5.2-3-6-1-16 4.1-20.2 3.8-3 9.5-3.2 13-.4 2.8 2.4 4.5 9.7 2.6 13-.5.8-2 1.3-3.2 1.4a33.4 33.4 0 0 1-5 .1h-5c-.4 5.6 1.8 6.4 11.7 4.5zm-6-11.3l.8-1c-1.3-1.2-2.7-3.5-3.7-3.3-1.8.3-3.4 2-5 3.3l.6 1zm41 9.3c0 7.4-1.2 8.8-7.6 7.9a15.6 15.6 0 0 1-8.8-4.6c-4.6-5.2-3.6-17 1.3-23.4 4.6-6.2 10.5-7.6 19.6-4.3l-1.1 6.9c-5.2-2.2-9.6-2.4-12.9 2.3-2.6 3.8-3 10.6-.9 13.8 1.9 2.7 4.2 3 10.4 1.4zM85 63.5l-.7 5a6.8 6.8 0 0 1-.9.3l-7.3 1.4c1.7 1.6 4 2.8 5 4.7 1.4 2.6 3 5.8 2.6 8.4-.3 2.2-3 5.1-5.1 5.8-3.8 1-8 .7-12.7 1l.4-7h10.5l.8-1.3c-5.6-4.1-13.3-7.5-7.5-16.2 2.4-3.7 8.5-4.4 15-2z"/>
		<path class="cls-2" d="M94.8 59.7l3.4 5c-.4 1.1 1 4.1-3.3 5.2-1.3.3-1.3 5.4-2.2 8.2-1.1 3.2-.8 5.4 3 5.7.8 4.1-.3 6.4-4.8 6.2-4.1 0-6.4-1.8-6-6 1-7.7 2-15.4 3.7-23 .3-1.4 4-2.1 6-3.1zm41.4 3.9c-2 2.8-4.4 5.2-5.6 8.2a41.5 41.5 0 0 0-3.4 12.9c-.3 5.6-3 5.6-7.7 4.6 1.2-8.2 2.4-16.3 3.9-24.4.2-.9 2.7-1.8 4.2-2 2.4-.1 4.8.4 8.6.7zm41 25.6l4.1-25.7h12.4c-1.7 2.6-4 5-5 7.9a46.7 46.7 0 0 0-3.5 12.8c-.5 5.3-2.8 6.6-8 5z"/>
		<path d="M196 77c3-3.2 4.8-7 7.4-7.6 3.2-.8 3.9 3 3.5 5.7-.4 3.4-.6 7.7-5.2 7.7-1.6 0-3.1-3-5.6-5.8zM59.6 79.7L53.8 84a19 19 0 0 1-1.7-2.8 40 40 0 0 1 5.7-4.2zM169 76.3c.2 5.1-.7 7.6-4.3 7.6-.9 0-1.8-1.8-2.6-2.8zm-56.3-3.5h-7.3l-.6-1c1.6-1.2 3.2-3 5-3.3 1-.2 2.4 2 3.7 3.2z"/>
	</symbol>
	<symbol id="am-express" viewBox="0 0 58 38.1">
		<path d="M55.8 1H2.2A1.4 1.4 0 0 0 .7 2.3V36a1.4 1.4 0 0 0 1.5 1.4h53.6a1.4 1.4 0 0 0 1.4-1.4V2.4A1.4 1.4 0 0 0 55.8.9zM14.6 17.6l-.1-.4a.9.9 0 0 1-1 .9H11a.9.9 0 0 1-.8-.6l-.3-.6H8.4l-.3.7a.9.9 0 0 1-.8.5H6a.9.9 0 0 1-.7-.4.9.9 0 0 1 0-.8l2.2-5.4a.9.9 0 0 1 .8-.5h2a.9.9 0 0 1 .7.5l.5 1.2V12a.9.9 0 0 1 1-.9h2a.9.9 0 0 1 .8.5l.9 1.8.7-1.8a.9.9 0 0 1 .8-.5h2.2a.9.9 0 0 1 .4.2.9.9 0 0 1 .5-.2H25a.8.8 0 0 1 .5.1.8.8 0 0 1 .4-.1h3a3.7 3.7 0 0 1 2 .4 1.7 1.7 0 0 1 .1.1.9.9 0 0 1 .8-.5H33a.9.9 0 0 1 .9.8 3.5 3.5 0 0 1 2.4-.8h1.2a1 1 0 0 1 .5.2.9.9 0 0 1 .6-.2h1.9a.9.9 0 0 1 .8.5l.5 1.1V12a.9.9 0 0 1 .9-.9h2a.9.9 0 0 1 .7.4l.6 1V12a.9.9 0 0 1 1-1h1.2a.9.9 0 0 1 1 1v5.3a.9.9 0 0 1-1 .9h-1.8a.9.9 0 0 1-.8-.4l-.8-1.3v.8a.9.9 0 0 1-.9.9h-2.6a.9.9 0 0 1-.8-.6l-.3-.6H39l-.3.7a.9.9 0 0 1-.8.5h-1.5a3.7 3.7 0 0 1-2.3-.7.9.9 0 0 1-.8.7h-1.4a.8.8 0 0 1-.4-.1.8.8 0 0 1-.4 0h-1.3a.9.9 0 0 1-.9-.8v-1h-.7v1a.9.9 0 0 1-1 .9H26a.9.9 0 0 1-.5-.1.8.8 0 0 1-.4 0h-4.3a.9.9 0 0 1-.5 0 .9.9 0 0 1-.4 0h-1.4a.9.9 0 0 1-.8-.8l-.2.4a.9.9 0 0 1-.8.5h-1.2a.9.9 0 0 1-.8-.5zM50 27.4h-2.5a.9.9 0 0 1-.8-.5 3.3 3.3 0 0 1-2 .5h-2.4a.8.8 0 0 1-.4 0 .9.9 0 0 1-.4 0h-4.3a.9.9 0 0 1-.3 0 .9.9 0 0 1-.4 0h-1.3a.9.9 0 0 1-.9-.9v-.7-.3h-.7v1a.9.9 0 0 1-1 1h-1.2a.9.9 0 0 1-1-1v-1.3a3.8 3.8 0 0 1-1.9.4h-.7v1a.9.9 0 0 1-.9.8h-2.4a.9.9 0 0 1-.7-.3l-1-1-1 1a.8.8 0 0 1-.6.3h-5a.9.9 0 0 1-1-.9v-5.3a.9.9 0 0 1 1-1h5.1a.9.9 0 0 1 .7.4l.9 1 1-1a.9.9 0 0 1 .6-.4h4.1a3.6 3.6 0 0 1 2 .5.9.9 0 0 1 .8-.5h3a3.9 3.9 0 0 1 2 .4 2 2 0 0 1 .2.1.9.9 0 0 1 .8-.5h4.3a.9.9 0 0 1 .7.5 3 3 0 0 1 1.6-.4h2.6a.9.9 0 0 1 .8.6 2.8 2.8 0 0 1 1.8-.6h2.6a.9.9 0 0 1 .9.9v1.1a.9.9 0 0 1-.4.8 2.4 2.4 0 0 1 .6 1.7c0 1.7-1 2.6-2.9 2.6z" fill="#353535"/>
		<path d="M30.1 14.8a1.5 1.5 0 0 0 1-1.4 1.3 1.3 0 0 0-.7-1.2 3 3 0 0 0-1.6-.3h-3v5.4h1.4v-2h1.4a1.3 1.3 0 0 1 .9.2 1.6 1.6 0 0 1 .2 1v.7H31v-1a1.5 1.5 0 0 0-.2-1 1.4 1.4 0 0 0-.7-.4zm-.7-.7a1.2 1.2 0 0 1-.7.2h-1.5V13h1.6a1.4 1.4 0 0 1 .6 0 .5.5 0 0 1 .2.5.6.6 0 0 1-.2.5zM31.8 11.9h1.3v5.4h-1.3zM47 12v3.7l-2.3-3.8h-2V17l-2.1-5h-2L36.9 16h-.5a1.3 1.3 0 0 1-1-.2 1.8 1.8 0 0 1-.3-1.3 1.7 1.7 0 0 1 .4-1.2 1.2 1.2 0 0 1 1-.3h1.2v-1.2h-1.2a2.7 2.7 0 0 0-2 .7 2.9 2.9 0 0 0-.7 2 2.7 2.7 0 0 0 .7 2.1 2.7 2.7 0 0 0 1.8.6h1.5l.5-1.2h2.7l.5 1.2H44v-4l2.4 4h1.9V12zm-8.3 3l.9-2.1.9 2.1z"/>
		<path d="M36.4 14H36a1.4 1.4 0 0 0 0 .7 1.4 1.4 0 0 0 0 .6h.3l.5-1.3zM41.5 22.3v-1.1h-4.3v5.3h4.3v-1h-3v-1.1h3v-1.1h-3v-1h3zM28.6 21.2h-4l-1.7 1.7-1.6-1.7h-5.2v5.3h5.1l1.7-1.7 1.5 1.7H27v-1.8h1.6c1.2 0 2.3-.3 2.3-1.8s-1.2-1.7-2.2-1.7zm-8 4.2h-3.2v-1h2.8v-1.1h-2.8v-1h3.2l1.4 1.6zm5 .7l-2-2.2 2-2.2zm3-2.5H27v-1.3h1.7c.5 0 .8.2.8.6s-.3.8-.8.8zM35.6 24a1.5 1.5 0 0 0 1-1.4 1.2 1.2 0 0 0-.7-1.2 3 3 0 0 0-1.6-.2h-3v5.3h1.3v-2H34a1.3 1.3 0 0 1 1 .3 1.6 1.6 0 0 1 .1 1v.7h1.3v-1a1.5 1.5 0 0 0-.2-1 1.3 1.3 0 0 0-.6-.4zm-.7-.6a1.3 1.3 0 0 1-.7 0h-1.5v-1.1h1.5a1.3 1.3 0 0 1 .7 0 .5.5 0 0 1 .2.6.6.6 0 0 1-.2.5zM46.4 23.7a2.1 2.1 0 0 0-1.4-.4h-.7a1.4 1.4 0 0 1-.5 0 .4.4 0 0 1-.3-.5.4.4 0 0 1 .2-.4.8.8 0 0 1 .5 0h2.4v-1.2H44c-1.4 0-1.8.8-1.8 1.6 0 1.7 1.5 1.6 2.7 1.6a.7.7 0 0 1 .4.2.5.5 0 0 1 .2.3.5.5 0 0 1-.2.4.7.7 0 0 1-.5 0h-2.5v1.2h2.5c1.3 0 2-.5 2-1.7a1.5 1.5 0 0 0-.4-1zM17.6 12l-1.5 3.6-1.7-3.7h-2V17L10 12H8.2L6 17.2h1.4l.5-1.2h2.7l.5 1.2h2.6v-4.2l1.9 4.2h1.1l1.9-4.2v4.2h1.3v-5.4zm-9.3 3l.8-2.1.9 2.1zM25 13v-1h-4.3v5.3H25v-1.1h-3v-1h3V14h-3v-1h3zM51.7 23.7a2.1 2.1 0 0 0-1.5-.4h-.7a1.4 1.4 0 0 1-.5 0 .4.4 0 0 1-.3-.5.4.4 0 0 1 .2-.4.9.9 0 0 1 .6 0h2.3v-1.2h-2.6c-1.3 0-1.8.8-1.8 1.6 0 1.7 1.5 1.6 2.7 1.6a.7.7 0 0 1 .4.2.5.5 0 0 1 .2.3.5.5 0 0 1-.1.4.7.7 0 0 1-.6 0h-2.5v1.2H50c1.3 0 2-.5 2-1.7a1.4 1.4 0 0 0-.3-1z"/>
	</symbol>
	<symbol id="discover" viewBox="0 0 58.7 39">
		<path d="M50.2 14.3a.4.4 0 0 0-.4.5.4.4 0 1 0 .8 0 .4.4 0 0 0-.4-.5zm0 .8v-.3.3H50v-.6h.2l.2.1a.2.2 0 0 1-.1.2l.2.3z"/>
		<path d="M50.1 14.6v.1h.1v-.1z"/>
		<path d="M56.3 1H2.7a1.4 1.4 0 0 0-1.5 1.4V36a1.4 1.4 0 0 0 1.5 1.4h53.6a1.4 1.4 0 0 0 1.4-1.4V2.4A1.4 1.4 0 0 0 56.3.9zm-6.1 13.3a.5.5 0 0 1 .5.5.5.5 0 1 1-.5-.6zm-4.9 0h2c1.5 0 2.3.8 2.3 2a1.8 1.8 0 0 1-1.5 2l2 2.7h-1.5l-1.8-2.7h-.2V21h-1.3zm-4.5 0h3.7v1.2H42V17h2.3v1.1H42V20h2.4V21h-3.7zm-5.6 0L37 19l1.8-4.5h1.4l-2.9 6.8h-.6l-2.9-6.8zm-7.8 2a3.5 3.5 0 0 1 6.8 1.5 4 4 0 0 1 0 .7V18.8a3.5 3.5 0 0 1-7-1 3.5 3.5 0 0 1 .3-1.4zm-2.3-2a3.3 3.3 0 0 1 1.6.4v1.5a2.2 2.2 0 0 0-1.6-.8 2.2 2.2 0 0 0-2.1 2.3 2.2 2.2 0 0 0 2.2 2.3 2 2 0 0 0 1.5-.7v1.5a3.5 3.5 0 0 1-1.6.4 3.4 3.4 0 0 1-3.5-3.5 3.5 3.5 0 0 1 3.5-3.5zm-12.1 6a3.4 3.4 0 0 1-2.4.7H8.8v-6.6h1.9a3.3 3.3 0 0 1 2.3 5.9zm3.1.7h-1.3v-6.6h1.3zm2.8.2a2.6 2.6 0 0 1-2.3-1.3l.8-.8a1.5 1.5 0 0 0 1.4 1 1 1 0 0 0 1-1 .8.8 0 0 0-.3-.7 5 5 0 0 0-1-.4c-1.2-.4-1.6-.9-1.6-1.8a2 2 0 0 1 2.1-2 3 3 0 0 1 2 .8l-.7.9a1.4 1.4 0 0 0-1-.5c-.6 0-1 .3-1 .7s.2.5 1 .8c1.4.6 1.9 1 1.9 2.1a2.1 2.1 0 0 1-2.3 2.2zm37.8 15.3H21.4c22.9-3.9 35.3-12.7 35.3-12.7z"/>
		<path d="M12.2 16a2.4 2.4 0 0 0-1.8-.5h-.3V20h.3a2.5 2.5 0 0 0 1.8-.5 2.3 2.3 0 0 0 .7-1.7 2.2 2.2 0 0 0-.7-1.6zM47 15.4h-.4v2h.4c.8 0 1.3-.3 1.3-1s-.5-1-1.3-1z"/>
	</symbol>
	<symbol id="arrow-up" viewBox="0 0 353 214">
		<path d="M6.6 178.1L175.8 9l169.8 169.8-29 29-139.8-139L36.4 208.3z"/>
	</symbol>
</svg>